<?xml version="1.0" encoding="UTF-8"?>
<svg xmlns="http://www.w3.org/2000/svg" viewBox="0 0 512 512">
  <defs>
    <style>
      .d {
        fill: #0476d9;
      }

      .e {
        fill: #fff;
      }
    </style>
  </defs>
  <g id="a" data-name="レイヤー_1">
    <rect class="d" width="512" height="512"/>
  </g>
  <g id="b" data-name="レイヤー_3">
    <polygon class="e" points="239.36 272.67 276.42 383.85 350.54 161.49 128.18 235.61 239.36 272.67"/>
  </g>
  <g id="c" data-name="レイヤー_2">
    <path class="e" d="M393.6,256c0,75.87-61.73,137.6-137.6,137.6s-137.6-61.73-137.6-137.6,61.73-137.6,137.6-137.6v-57.76c-52.18,0-101.24,20.32-138.14,57.22-36.9,36.9-57.22,85.96-57.22,138.14s20.32,101.24,57.22,138.14c36.9,36.9,85.96,57.22,138.14,57.22s101.24-20.32,138.14-57.22c36.9-36.9,57.22-85.96,57.22-138.14h-57.76Z"/>
  </g>
</svg>