<?xml version="1.0" encoding="UTF-8"?>
<svg xmlns="http://www.w3.org/2000/svg" viewBox="0 0 512 512">
  <defs>
    <style>
      .d {
        fill: #0476d9;
      }

      .e {
        fill: #fff;
      }
    </style>
  </defs>
  <g id="a" data-name="レイヤー_1">
    <circle class="d" cx="256" cy="256" r="220"/>
  </g>
  <g id="b" data-name="レイヤー_3">
    <polygon class="e" points="239.06 272.97 276.79 386.18 352.26 159.76 125.85 235.23 239.06 272.97"/>
  </g>
  <g id="c" data-name="レイヤー_2">
    <path class="e" d="M399.43,256c0,79.09-64.34,143.43-143.43,143.43s-143.43-64.34-143.43-143.43,64.34-143.43,143.43-143.43v-60.21c-54.4,0-105.54,21.18-144,59.65-38.46,38.46-59.65,89.6-59.65,144s21.18,105.54,59.65,144c38.46,38.46,89.6,59.65,144,59.65s105.54-21.18,144-59.65c38.46-38.46,59.65-89.6,59.65-144h-60.21Z"/>
  </g>
</svg>